<svg width="16" height="24" viewBox="0 0 16 24" fill="none" xmlns="http://www.w3.org/2000/svg">
<path d="M13.4868 5.97852C12.2469 3.87765 10.4865 2.13169 8.37555 0.908991L7.99999 0.691772L7.62443 0.908991C5.47753 2.148 3.69482 3.93059 2.45567 6.07741C1.21651 8.22422 0.564634 10.6595 0.565614 13.1383C0.565614 13.2998 0.568426 13.4638 0.573911 13.6258C0.648536 15.8222 1.48849 17.6703 3.00297 18.9704C4.16191 19.9653 5.6485 20.5727 7.25018 20.7176V23.3082H8.75018V11.3082H7.24999V19.208C4.71574 18.9144 2.19344 17.1241 2.07293 13.5748C2.06796 13.4297 2.06543 13.2829 2.06543 13.1383C2.06989 10.998 2.61651 8.89365 3.65427 7.02172C4.69204 5.1498 6.18712 3.57129 7.99999 2.43351C9.81283 3.57131 11.3079 5.14983 12.3456 7.02176C13.3833 8.89368 13.9299 10.998 13.9344 13.1383C13.9344 13.2829 13.9318 13.4297 13.9269 13.5749C13.8305 16.4142 12.1968 18.1277 10.2498 18.85V20.4375C11.2602 20.1511 12.1971 19.6507 12.997 18.9703C14.5115 17.6702 15.3514 15.8221 15.4261 13.6258C15.4316 13.4638 15.4344 13.2997 15.4344 13.1383C15.4357 10.6207 14.7633 8.14856 13.4868 5.97852Z" fill="currentColor"/>
</svg>
